<svg width="394" height="321" viewBox="0 0 394 321" fill="none" xmlns="http://www.w3.org/2000/svg">
<g clip-path="url(#clip0)">
<g clip-path="url(#clip1)">
<path d="M246.09 66.9134L246.219 67.3966L246.702 67.2681L250.787 66.1818C269.35 61.2451 288.086 71.3352 292.687 88.634C297.287 105.933 286.038 123.997 267.475 128.934L259.066 131.17L258.779 131.247L258.709 131.536C255.875 143.251 247.44 153.235 235.892 158.509L235.508 158.685L235.616 159.093L237.137 164.81C237.432 165.921 236.714 167.134 235.446 167.471L183.707 181.23C182.439 181.568 181.213 180.872 180.918 179.761L179.397 174.044L179.289 173.636L178.868 173.674C159.344 175.479 141.745 163.887 137 146.185L123.161 94.1476C122.866 93.0365 123.584 91.8235 124.852 91.4864L241.945 60.3461C243.213 60.009 244.439 60.7049 244.735 61.8159L246.09 66.9134ZM231.624 164.064L232.108 163.935L231.979 163.452L231.301 160.903L231.173 160.42L230.689 160.549L184.397 172.86L183.913 172.989L184.042 173.472L184.72 176.02L184.848 176.504L185.331 176.375L231.624 164.064ZM254.094 115.046L254.094 115.045L240.933 65.5561L240.804 65.0728L240.321 65.2014L128.673 94.8932L128.19 95.0217L128.319 95.5049L141.48 144.994L141.48 144.995C146.292 162.986 165.729 173.375 184.885 168.307L184.885 168.307L228.003 156.84L228.004 156.84C247.147 151.723 258.855 133.051 254.094 115.046ZM251.19 84.1429L250.707 84.2714L250.835 84.7546L258.291 112.791L258.42 113.274L258.903 113.145L262.987 112.059C271.495 109.796 276.729 101.485 274.591 93.4463C272.453 85.4077 263.782 80.7939 255.274 83.0566L251.19 84.1429ZM259.625 125.907L259.567 126.614L260.252 126.432L266.377 124.803C282.404 120.54 292.216 104.902 288.207 89.8253C284.197 74.7487 267.913 66.0505 251.885 70.3129L247.801 71.3992L247.317 71.5277L247.446 72.0109L249.479 79.6571L249.608 80.1403L250.091 80.0118L254.176 78.9255C265.219 75.9887 276.342 81.9942 279.071 92.2549C281.8 102.516 275.129 113.253 264.086 116.19L259.756 117.342L259.327 117.456L259.39 117.896C259.769 120.541 259.848 123.226 259.625 125.907Z" stroke="#633200"/>
<path d="M175.133 53.2577C172.958 50.664 172.005 47.3206 172.487 43.9761L172.98 41.0832C173.28 39.6389 172.291 38.2769 170.77 38.041C169.249 37.8051 167.774 38.7847 167.474 40.2289C167.462 40.2874 167.452 40.346 167.444 40.4048L166.948 43.2987C166.191 48.1661 167.595 53.0459 170.824 56.778C172.999 59.3717 173.952 62.7151 173.47 66.0596L172.977 68.9525C172.677 70.3968 173.667 71.7588 175.187 71.9947C176.708 72.2306 178.184 71.251 178.484 69.8068C178.496 69.7483 178.506 69.6897 178.514 69.6306L179.009 66.737C179.766 61.8696 178.362 56.9898 175.133 53.2577Z" fill="#633200"/>
<path d="M199.641 46.74C197.466 44.1463 196.513 40.8029 196.995 37.4583L197.488 34.5654C197.788 33.1212 196.798 31.7593 195.278 31.5233C193.758 31.2873 192.282 32.2669 191.982 33.7112C191.97 33.7697 191.96 33.8283 191.952 33.8871L191.456 36.781C190.699 41.6484 192.103 46.5282 195.332 50.2602C197.507 52.8539 198.46 56.1973 197.978 59.5419L197.485 62.4348C197.185 63.8791 198.175 65.2411 199.695 65.477C201.216 65.7129 202.692 64.7333 202.992 63.289C203.004 63.2305 203.014 63.1719 203.022 63.1132L203.518 60.2195C204.274 55.3518 202.87 50.4721 199.641 46.74Z" fill="#362D26"/>
<g clip-path="url(#clip2)">
<path d="M183.768 110.447C184.483 110.254 184.851 109.56 184.518 109.046L184.428 108.908C184.147 108.474 183.475 108.351 182.93 108.632C182.383 108.915 182.169 109.495 182.45 109.929L182.54 110.067C182.777 110.431 183.287 110.576 183.768 110.447Z" fill="#362D26"/>
<path d="M215.042 94.9353C211.379 91.9004 204.659 94.4828 204.416 99.0677L203.535 115.762C202.312 115.212 201.592 114.754 200.276 114.935L191.096 100.9C189.537 98.5184 185.847 97.8505 182.847 99.411C179.85 100.968 178.677 104.157 180.237 106.544L180.421 106.826C180.703 107.26 181.374 107.382 181.92 107.1C182.466 106.817 182.679 106.236 182.397 105.803L182.212 105.52C181.214 103.992 181.973 101.966 183.873 100.979C185.781 99.9865 188.13 100.41 189.122 101.926L198.223 115.841C198.018 116.017 197.832 116.213 197.675 116.432C195.217 119.86 196.349 124.024 200.156 125.755L204.694 127.84C205.484 128.203 206.092 128.754 206.461 129.431C198.738 132.897 194.356 140.367 196.195 147.19C196.327 147.682 196.921 147.949 197.521 147.788C198.121 147.626 198.5 147.096 198.367 146.605C196.691 140.383 200.925 133.547 208.217 130.702C208.741 130.498 209.042 130.012 208.922 129.566C208.524 128.089 207.453 126.884 205.905 126.173L201.363 124.087C198.587 122.825 197.75 119.786 199.549 117.278C199.877 116.82 200.565 116.636 201.081 116.869L212.448 121.989C215.203 123.231 217.108 125.355 217.813 127.97L219.379 133.782C221.429 141.389 215.544 149.614 206.26 152.116L198.657 154.165C189.373 156.667 180.152 152.513 178.102 144.905L176.302 138.227C179.442 139.161 183.136 137.382 183.994 134.474C188.568 136.741 194.64 132.774 193.45 128.358L190.811 118.566C190.556 117.621 189.988 116.826 189.218 116.23L186.534 112.128C186.251 111.695 185.58 111.574 185.034 111.857C184.489 112.141 184.277 112.722 184.56 113.155L185.788 115.032C181.746 114.836 178.243 118.025 178.771 121.353C174.628 120.096 170.019 123.56 171.012 127.243L175.929 145.491C178.244 154.08 188.655 158.77 199.136 155.945L206.74 153.896C217.222 151.071 223.866 141.785 221.552 133.196L219.985 127.384C219.315 124.898 217.726 122.788 215.436 121.294L216.641 98.4906C216.713 97.1168 216.146 95.8547 215.042 94.9353ZM181.035 121.201C180.572 119.483 181.901 117.626 183.997 117.061C186.094 116.496 188.176 117.434 188.639 119.152L191.277 128.943C191.74 130.661 190.411 132.518 188.315 133.083C186.219 133.648 184.137 132.71 183.674 130.992C183.369 129.862 181.339 122.329 181.035 121.201ZM173.185 126.658C172.788 125.186 173.927 123.594 175.724 123.11C177.521 122.625 179.305 123.429 179.702 124.902L181.861 132.913C182.258 134.385 181.119 135.977 179.322 136.461C177.525 136.946 175.74 136.142 175.344 134.669L173.185 126.658ZM214.418 98.5958L213.279 120.152L205.7 116.738L206.639 98.9631C206.735 97.1577 208.557 95.6061 210.702 95.5049C212.839 95.4036 214.514 96.7749 214.418 98.5958Z" fill="#362D26"/>
</g>
<path d="M159.496 198.956L159.556 202.436C159.556 202.628 159.496 202.792 159.376 202.928C159.256 203.056 159.112 203.12 158.944 203.12C158.784 203.12 158.644 203.056 158.524 202.928C158.412 202.792 158.356 202.628 158.356 202.436C158.356 202.436 158.372 201.136 158.404 198.536L158.356 194.576C158.356 194.384 158.412 194.224 158.524 194.096C158.644 193.96 158.784 193.892 158.944 193.892C159.112 193.892 159.256 193.96 159.376 194.096C159.496 194.224 159.556 194.384 159.556 194.576L159.52 195.656C159.504 196.376 159.496 197.088 159.496 197.792C159.712 197.728 159.988 197.696 160.324 197.696L160.996 197.768C161.372 197.488 161.752 197.008 162.136 196.328C162.528 195.64 162.788 195.008 162.916 194.432C163.004 194.064 163.196 193.88 163.492 193.88C163.628 193.88 163.744 193.932 163.84 194.036C163.944 194.14 163.996 194.268 163.996 194.42C163.996 194.916 163.772 195.568 163.324 196.376C162.884 197.184 162.408 197.848 161.896 198.368C162.712 199.84 163.38 200.908 163.9 201.572C164.18 201.924 164.444 202.1 164.692 202.1L164.824 202.088C164.88 202.088 164.908 202.176 164.908 202.352C164.908 202.528 164.836 202.7 164.692 202.868C164.548 203.036 164.364 203.12 164.14 203.12C163.916 203.12 163.696 203.024 163.48 202.832C163.04 202.456 162.176 201.148 160.888 198.908L160.12 198.992C159.832 198.992 159.624 198.98 159.496 198.956ZM167.566 198.74C167.566 198.74 167.578 199.932 167.602 202.316C167.602 202.868 167.398 203.144 166.99 203.144C166.494 203.144 166.246 202.728 166.246 201.896C166.246 201.056 166.354 199.884 166.57 198.38C166.57 197.86 166.522 197.156 166.426 196.268C166.338 195.372 166.294 194.824 166.294 194.624C166.294 194.424 166.35 194.252 166.462 194.108C166.574 193.956 166.726 193.88 166.918 193.88C167.118 193.88 167.274 193.956 167.386 194.108C167.498 194.252 167.554 194.416 167.554 194.6C167.554 194.784 167.55 195.008 167.542 195.272C167.542 195.528 167.542 195.744 167.542 195.92C167.774 195.368 168.13 194.884 168.61 194.468C169.09 194.044 169.578 193.832 170.074 193.832C170.578 193.832 170.962 193.932 171.226 194.132C171.49 194.324 171.622 194.536 171.622 194.768C171.622 194.992 171.558 195.172 171.43 195.308C171.31 195.436 171.158 195.5 170.974 195.5C170.79 195.5 170.586 195.4 170.362 195.2C170.146 195 169.97 194.9 169.834 194.9C169.466 194.9 169.03 195.328 168.526 196.184C168.022 197.032 167.702 197.884 167.566 198.74ZM174.447 195.248L174.315 199.232C174.315 200.104 174.463 200.808 174.759 201.344C175.063 201.872 175.519 202.136 176.127 202.136C176.743 202.136 177.335 201.78 177.903 201.068C178.471 200.348 178.807 199.552 178.911 198.68L178.863 194.744C178.863 194.192 179.067 193.916 179.475 193.916C179.971 193.916 180.219 194.324 180.219 195.14C180.219 195.956 180.111 197.136 179.895 198.68C179.895 199.56 179.951 200.308 180.063 200.924C180.183 201.532 180.327 201.872 180.495 201.944C180.559 201.976 180.635 202 180.723 202.016C180.819 202.024 180.887 202.04 180.927 202.064C180.967 202.088 180.987 202.132 180.987 202.196C180.987 202.492 180.899 202.732 180.723 202.916C180.547 203.092 180.323 203.18 180.051 203.18C179.371 203.18 179.031 202.488 179.031 201.104C178.231 202.488 177.223 203.18 176.007 203.18C175.359 203.18 174.815 203 174.375 202.64C173.575 201.968 173.175 200.9 173.175 199.436L173.271 196.568C173.271 196.136 173.227 195.736 173.139 195.368C173.051 195 173.007 194.736 173.007 194.576C173.007 194.408 173.071 194.256 173.199 194.12C173.327 193.984 173.495 193.916 173.703 193.916C174.199 193.916 174.447 194.36 174.447 195.248ZM185.743 194.852C185.215 194.852 184.775 194.944 184.423 195.128C184.399 195.512 184.387 196.084 184.387 196.844C184.387 197.604 184.395 198.16 184.411 198.512C184.899 198.632 185.435 198.692 186.019 198.692C186.611 198.692 187.119 198.512 187.543 198.152C187.975 197.792 188.191 197.332 188.191 196.772C188.191 196.204 187.975 195.744 187.543 195.392C187.111 195.032 186.511 194.852 185.743 194.852ZM183.223 202.424L183.319 198.416C183.319 196.44 183.295 195.452 183.247 195.452C183.071 195.428 182.939 195.368 182.851 195.272C182.763 195.176 182.719 195.052 182.719 194.9C182.719 194.74 182.835 194.584 183.067 194.432C183.299 194.28 183.583 194.16 183.919 194.072C184.591 193.904 185.175 193.82 185.671 193.82C186.871 193.82 187.783 194.104 188.407 194.672C189.031 195.24 189.343 195.936 189.343 196.76C189.343 197.584 189.031 198.284 188.407 198.86C187.783 199.428 186.975 199.712 185.983 199.712C185.239 199.712 184.707 199.668 184.387 199.58L184.447 202.424C184.447 202.632 184.391 202.8 184.279 202.928C184.167 203.056 184.019 203.12 183.835 203.12C183.659 203.12 183.511 203.056 183.391 202.928C183.279 202.8 183.223 202.632 183.223 202.424ZM193.56 194.852C193.032 194.852 192.592 194.944 192.24 195.128C192.216 195.512 192.204 196.084 192.204 196.844C192.204 197.604 192.212 198.16 192.228 198.512C192.716 198.632 193.252 198.692 193.836 198.692C194.428 198.692 194.936 198.512 195.36 198.152C195.792 197.792 196.008 197.332 196.008 196.772C196.008 196.204 195.792 195.744 195.36 195.392C194.928 195.032 194.328 194.852 193.56 194.852ZM191.04 202.424L191.136 198.416C191.136 196.44 191.112 195.452 191.064 195.452C190.888 195.428 190.756 195.368 190.668 195.272C190.58 195.176 190.536 195.052 190.536 194.9C190.536 194.74 190.652 194.584 190.884 194.432C191.116 194.28 191.4 194.16 191.736 194.072C192.408 193.904 192.992 193.82 193.488 193.82C194.688 193.82 195.6 194.104 196.224 194.672C196.848 195.24 197.16 195.936 197.16 196.76C197.16 197.584 196.848 198.284 196.224 198.86C195.6 199.428 194.792 199.712 193.8 199.712C193.056 199.712 192.524 199.668 192.204 199.58L192.264 202.424C192.264 202.632 192.208 202.8 192.096 202.928C191.984 203.056 191.836 203.12 191.652 203.12C191.476 203.12 191.328 203.056 191.208 202.928C191.096 202.8 191.04 202.632 191.04 202.424ZM206.194 202.136C207.034 202.136 207.73 201.768 208.282 201.032C208.842 200.296 209.122 199.444 209.122 198.476C209.122 197.508 208.846 196.664 208.294 195.944C207.742 195.216 207.042 194.852 206.194 194.852C205.354 194.852 204.654 195.216 204.094 195.944C203.542 196.664 203.266 197.508 203.266 198.476C203.266 199.436 203.546 200.288 204.106 201.032C204.666 201.768 205.362 202.136 206.194 202.136ZM209.11 195.176C209.886 196.08 210.274 197.184 210.274 198.488C210.274 199.792 209.882 200.9 209.098 201.812C208.322 202.724 207.35 203.18 206.182 203.18C205.022 203.18 204.054 202.724 203.278 201.812C202.502 200.9 202.114 199.792 202.114 198.488C202.114 197.184 202.506 196.08 203.29 195.176C204.074 194.272 205.046 193.82 206.206 193.82C207.374 193.82 208.342 194.272 209.11 195.176ZM214.549 197.72L216.589 197.66C216.805 197.66 216.977 197.712 217.105 197.816C217.233 197.912 217.297 198.044 217.297 198.212C217.297 198.564 217.061 198.74 216.589 198.74L214.549 198.692C214.197 198.692 213.929 198.696 213.745 198.704C213.745 199.752 213.757 200.592 213.781 201.224C213.805 201.856 213.817 202.204 213.817 202.268C213.817 202.836 213.613 203.12 213.205 203.12C212.797 203.12 212.593 202.836 212.593 202.268C212.593 202.204 212.597 202.016 212.605 201.704C212.645 200.768 212.665 199.78 212.665 198.74C212.129 198.74 211.861 198.564 211.861 198.212C211.861 198.028 211.937 197.892 212.089 197.804C212.241 197.708 212.433 197.66 212.665 197.66C212.649 196.164 212.621 195.264 212.581 194.96C212.485 194.808 212.437 194.648 212.437 194.48C212.437 194.12 212.685 193.94 213.181 193.94L215.401 194L217.321 193.928C217.537 193.928 217.709 193.98 217.837 194.084C217.973 194.18 218.041 194.316 218.041 194.492C218.041 194.668 217.973 194.808 217.837 194.912C217.709 195.008 217.537 195.056 217.321 195.056L215.401 194.984C214.777 194.984 214.225 195.004 213.745 195.044L213.745 197.708C213.897 197.716 214.165 197.72 214.549 197.72ZM226.233 194L228.021 193.928C228.237 193.928 228.409 193.98 228.537 194.084C228.673 194.18 228.741 194.316 228.741 194.492C228.741 194.66 228.665 194.796 228.513 194.9C228.361 195.004 228.165 195.056 227.925 195.056C227.917 195.552 227.913 197.172 227.913 199.916C227.913 200.5 227.829 201.012 227.661 201.452C227.501 201.892 227.285 202.232 227.013 202.472C226.477 202.944 225.865 203.18 225.177 203.18C224.497 203.18 223.937 203.044 223.497 202.772C223.065 202.492 222.849 202.22 222.849 201.956C222.849 201.804 222.893 201.684 222.981 201.596C223.069 201.5 223.185 201.452 223.329 201.452C223.473 201.452 223.617 201.508 223.761 201.62C223.905 201.732 224.089 201.848 224.313 201.968C224.537 202.08 224.813 202.136 225.141 202.136C225.605 202.136 226.001 201.94 226.329 201.548C226.665 201.148 226.833 200.52 226.833 199.664L226.797 194.996C226.293 194.996 225.837 195.008 225.429 195.032C225.021 195.056 224.741 195.068 224.589 195.068C224.437 195.068 224.293 195.02 224.157 194.924C224.029 194.82 223.965 194.68 223.965 194.504C223.965 194.328 224.029 194.192 224.157 194.096C224.293 193.992 224.469 193.94 224.685 193.94L226.233 194ZM234.354 202.136C235.194 202.136 235.89 201.768 236.442 201.032C237.002 200.296 237.282 199.444 237.282 198.476C237.282 197.508 237.006 196.664 236.454 195.944C235.902 195.216 235.202 194.852 234.354 194.852C233.514 194.852 232.814 195.216 232.254 195.944C231.702 196.664 231.426 197.508 231.426 198.476C231.426 199.436 231.706 200.288 232.266 201.032C232.826 201.768 233.522 202.136 234.354 202.136ZM237.27 195.176C238.046 196.08 238.434 197.184 238.434 198.488C238.434 199.792 238.042 200.9 237.258 201.812C236.482 202.724 235.51 203.18 234.342 203.18C233.182 203.18 232.214 202.724 231.438 201.812C230.662 200.9 230.274 199.792 230.274 198.488C230.274 197.184 230.666 196.08 231.45 195.176C232.234 194.272 233.206 193.82 234.366 193.82C235.534 193.82 236.502 194.272 237.27 195.176ZM246.453 196.364C246.453 195.988 246.297 195.644 245.985 195.332C245.681 195.02 245.261 194.864 244.725 194.864C244.189 194.864 243.717 195.024 243.309 195.344C242.557 195.928 242.073 196.796 241.857 197.948C242.465 198.116 243.149 198.2 243.909 198.2C244.677 198.2 245.293 198.04 245.757 197.72C246.221 197.4 246.453 196.948 246.453 196.364ZM247.317 201.728C247.317 202.008 247.033 202.32 246.465 202.664C245.897 203.008 245.285 203.18 244.629 203.18C243.973 203.18 243.401 203.056 242.913 202.808C242.425 202.56 242.025 202.228 241.713 201.812C241.065 200.948 240.717 199.936 240.669 198.776C240.093 198.6 239.805 198.316 239.805 197.924C239.805 197.764 239.849 197.64 239.937 197.552C240.033 197.456 240.141 197.408 240.261 197.408C240.381 197.408 240.549 197.456 240.765 197.552C241.013 196.48 241.477 195.592 242.157 194.888C242.845 194.176 243.685 193.82 244.677 193.82C245.485 193.82 246.173 194.064 246.741 194.552C247.317 195.04 247.605 195.628 247.605 196.316C247.605 197.004 247.429 197.568 247.077 198.008C246.413 198.816 245.381 199.22 243.981 199.22C243.405 199.22 242.689 199.14 241.833 198.98C241.905 199.844 242.189 200.588 242.685 201.212C243.189 201.828 243.785 202.136 244.473 202.136C245.169 202.136 245.817 201.94 246.417 201.548C246.681 201.404 246.857 201.332 246.945 201.332C247.041 201.332 247.125 201.372 247.197 201.452C247.277 201.524 247.317 201.616 247.317 201.728Z" fill="black"/>
</g>
</g>
<defs>
<clipPath id="clip0">
<rect width="394" height="321" fill="white"/>
</clipPath>
<clipPath id="clip1">
<rect x="109" y="50.1582" width="195.161" height="197.35" transform="rotate(-14.8927 109 50.1582)" fill="white"/>
</clipPath>
<clipPath id="clip2">
<rect x="155" y="106.735" width="72" height="59" transform="rotate(-15.0821 155 106.735)" fill="white"/>
</clipPath>
</defs>
</svg>
